<?xml version="1.0" encoding="UTF-8" standalone="no"?>
<!DOCTYPE svg PUBLIC "-//W3C//DTD SVG 1.1//EN" "http://www.w3.org/Graphics/SVG/1.1/DTD/svg11.dtd">
<svg xmlns="http://www.w3.org/2000/svg" version="1.1" viewBox="0.00 0.00 500.00 500.00">
<g stroke-width="2.00" fill="none" stroke-linecap="butt">
<path stroke="#8e8c8d" vector-effect="non-scaling-stroke" d="
  M 79.26 274.76
  L 17.30 375.84
  A 0.28 0.27 15.7 0 0 17.54 376.26
  L 327.64 376.26
  Q 328.19 376.26 328.48 375.79
  L 395.77 266.05
  Q 396.02 265.65 395.75 265.27
  L 389.42 256.47
  A 0.79 0.78 -17.6 0 0 388.75 256.13
  L 378.00 256.30
  Q 377.24 256.31 377.24 257.07
  L 377.25 266.37
  Q 377.25 267.00 376.63 267.00
  L 374.21 267.00
  Q 373.68 267.00 373.68 266.47
  L 373.67 233.42
  Q 373.67 232.86 374.22 232.83
  C 383.88 232.32 402.51 230.85 400.22 246.75
  Q 399.38 252.53 393.17 255.02
  Q 392.59 255.25 392.96 255.76
  L 397.53 262.11
  Q 397.89 262.61 398.21 262.09
  L 411.49 240.48
  A 0.45 0.45 0.0 0 1 412.26 240.49
  L 421.07 254.96
  A 1.20 1.19 29.3 0 1 421.25 255.59
  L 421.25 266.50
  Q 421.25 267.00 421.75 267.00
  L 425.50 267.00
  Q 426.00 267.00 426.00 266.50
  L 426.00 255.51
  Q 426.00 255.08 426.22 254.72
  L 439.28 233.28
  Q 439.61 232.75 438.99 232.75
  L 435.28 232.75
  Q 434.77 232.75 434.50 233.19
  L 424.04 250.30
  A 0.34 0.33 -44.7 0 1 423.47 250.30
  L 414.93 236.24
  A 1.30 1.28 45.4 0 1 414.93 234.91
  L 483.13 123.63
  A 0.42 0.42 0.0 0 0 482.77 123.00
  L 172.98 123.00
  A 0.99 0.99 0.0 0 0 172.14 123.47
  Q 137.34 179.84 102.87 236.41
  Q 101.71 238.32 101.63 240.45
  C 101.30 249.00 98.71 265.66 113.77 263.88
  Q 121.46 262.98 122.27 253.76
  Q 122.69 248.98 122.43 233.36
  Q 122.42 232.75 123.04 232.75
  L 125.28 232.75
  Q 125.89 232.75 125.91 233.36
  Q 126.29 248.90 125.63 255.43
  C 124.62 265.30 114.91 269.45 106.43 266.36
  C 97.06 262.95 97.56 253.69 97.76 245.30
  Q 97.78 244.69 97.46 245.21
  Q 90.26 256.88 82.83 268.42
  C 80.49 272.05 75.24 269.67 73.10 267.19
  Q 72.78 266.81 73.25 266.67
  C 87.46 262.41 90.75 243.65 78.30 235.56
  C 63.13 225.71 43.10 240.44 51.57 257.77
  Q 55.69 266.20 66.48 267.32
  A 1.19 1.17 72.9 0 1 67.27 267.75
  Q 71.81 273.42 79.00 274.23
  Q 79.54 274.30 79.26 274.76"
/>
<path stroke="#8e8c8d" vector-effect="non-scaling-stroke" d="
  M 377.26 236.19
  L 377.24 252.71
  A 0.25 0.25 0.0 0 0 377.49 252.96
  L 387.46 252.98
  A 9.26 8.10 0.1 0 0 396.73 244.90
  L 396.73 244.08
  A 9.26 8.10 0.1 0 0 387.48 235.96
  L 377.51 235.94
  A 0.25 0.25 0.0 0 0 377.26 236.19"
/>
<path stroke="#8e8c8d" vector-effect="non-scaling-stroke" d="
  M 144.28 257.75
  L 162.25 257.75
  Q 162.79 257.75 163.02 258.24
  L 166.76 266.51
  Q 166.98 267.00 167.51 267.00
  L 169.97 267.00
  Q 170.71 267.00 170.40 266.33
  L 155.63 233.95
  A 2.56 2.55 45.0 0 0 150.98 233.95
  L 136.19 266.27
  Q 135.86 267.00 136.66 267.00
  L 138.96 267.00
  Q 139.58 267.00 139.84 266.43
  L 143.53 258.23
  Q 143.75 257.75 144.28 257.75"
/>
<path stroke="#8e8c8d" vector-effect="non-scaling-stroke" d="
  M 187.10 235.75
  A 0.40 0.40 0.0 0 1 187.50 236.15
  L 187.50 266.60
  A 0.40 0.40 0.0 0 0 187.90 267.00
  L 190.60 267.00
  A 0.40 0.40 0.0 0 0 191.00 266.60
  L 191.00 236.15
  A 0.40 0.40 0.0 0 1 191.40 235.75
  L 202.60 235.75
  A 0.40 0.40 0.0 0 0 203.00 235.35
  L 203.00 233.15
  A 0.40 0.40 0.0 0 0 202.60 232.75
  L 175.90 232.75
  A 0.40 0.40 0.0 0 0 175.50 233.15
  L 175.50 235.35
  A 0.40 0.40 0.0 0 0 175.90 235.75
  L 187.10 235.75"
/>
<path stroke="#8e8c8d" vector-effect="non-scaling-stroke" d="
  M 217.09 248.07
  A 0.34 0.34 0.0 0 1 216.75 247.73
  L 216.74 236.09
  A 0.34 0.34 0.0 0 1 217.08 235.75
  L 236.16 235.75
  A 0.34 0.34 0.0 0 0 236.50 235.41
  L 236.50 233.09
  A 0.34 0.34 0.0 0 0 236.16 232.75
  L 213.45 232.75
  A 0.34 0.34 0.0 0 0 213.11 233.09
  L 213.16 266.66
  A 0.34 0.34 0.0 0 0 213.50 267.00
  L 236.91 267.00
  A 0.34 0.34 0.0 0 0 237.25 266.66
  L 237.25 264.34
  A 0.34 0.34 0.0 0 0 236.91 264.00
  L 217.09 264.00
  A 0.34 0.34 0.0 0 1 216.75 263.66
  L 216.75 251.34
  A 0.34 0.34 0.0 0 1 217.09 251.00
  L 234.06 251.00
  A 0.34 0.34 0.0 0 0 234.40 250.67
  L 234.45 248.46
  A 0.34 0.34 0.0 0 0 234.11 248.11
  L 217.09 248.07"
/>
<path stroke="#8e8c8d" vector-effect="non-scaling-stroke" d="
  M 266.23 256.44
  L 273.45 266.57
  Q 273.74 266.98 274.25 266.99
  L 276.90 267.01
  A 0.42 0.42 0.0 0 0 277.24 266.35
  L 269.67 255.86
  Q 269.31 255.37 269.87 255.12
  C 276.90 251.93 279.29 244.25 275.14 237.89
  C 270.97 231.49 258.59 232.29 250.68 233.04
  Q 250.42 233.06 250.42 233.32
  L 250.43 266.34
  Q 250.43 267.00 251.09 267.00
  L 253.37 267.00
  Q 254.00 267.00 254.00 266.38
  L 254.00 256.50
  Q 254.00 256.00 254.50 256.00
  L 265.40 256.01
  A 1.02 1.00 -17.2 0 1 266.23 256.44"
/>
<path stroke="#8e8c8d" vector-effect="non-scaling-stroke" d="
  M 294.23 239.81
  L 315.45 266.61
  A 1.85 1.85 0.0 0 0 318.75 265.46
  L 318.75 233.50
  Q 318.75 232.75 318.00 232.75
  L 315.88 232.75
  Q 315.25 232.75 315.25 233.37
  L 315.25 260.02
  A 0.26 0.26 0.0 0 1 314.78 260.18
  L 293.27 233.05
  A 1.83 1.83 0.0 0 0 290.01 234.20
  L 290.22 266.23
  Q 290.22 267.00 290.99 267.00
  L 293.12 267.00
  Q 293.75 267.00 293.75 266.38
  L 293.75 239.98
  Q 293.75 239.21 294.23 239.81"
/>
<path stroke="#8e8c8d" vector-effect="non-scaling-stroke" d="
  M 355.75 258.24
  L 359.50 266.52
  Q 359.71 266.98 360.21 266.98
  L 362.71 267.01
  Q 363.46 267.01 363.15 266.34
  L 348.37 233.95
  A 2.56 2.56 0.0 0 0 343.71 233.95
  L 328.93 266.33
  Q 328.60 267.05 329.39 267.02
  L 331.82 266.95
  Q 332.35 266.93 332.57 266.44
  L 336.29 258.23
  A 0.81 0.80 11.7 0 1 337.03 257.75
  L 354.99 257.75
  Q 355.53 257.75 355.75 258.24"
/>
<path stroke="#8e8c8d" vector-effect="non-scaling-stroke" d="
  M 81.02 249.87
  A 13.22 13.22 0.0 0 0 67.80 236.65
  A 13.22 13.22 0.0 0 0 54.58 249.87
  A 13.22 13.22 0.0 0 0 67.80 263.09
  A 13.22 13.22 0.0 0 0 81.02 249.87"
/>
<path stroke="#8e8c8d" vector-effect="non-scaling-stroke" d="
  M 203.00 301.08
  Q 205.50 300.13 207.62 301.77
  Q 208.10 302.14 208.37 301.60
  L 209.03 300.29
  Q 209.30 299.77 208.80 299.45
  C 205.77 297.54 200.98 297.58 199.50 301.37
  C 197.60 306.26 202.79 307.26 205.83 308.63
  A 1.89 1.89 0.0 0 1 205.77 312.10
  Q 203.03 313.21 200.72 311.45
  Q 200.36 311.18 199.93 311.32
  Q 198.78 311.68 198.74 312.78
  Q 198.72 313.35 199.20 313.66
  C 202.28 315.65 206.98 315.87 208.99 312.35
  C 211.83 307.38 206.43 305.51 203.05 304.35
  A 1.74 1.74 0.0 0 1 203.00 301.08"
/>
<path stroke="#8e8c8d" vector-effect="non-scaling-stroke" d="
  M 222.50 301.31
  A 0.56 0.56 0.0 0 1 223.06 300.75
  L 226.94 300.75
  A 0.56 0.56 0.0 0 0 227.50 300.19
  L 227.50 298.81
  A 0.56 0.56 0.0 0 0 226.94 298.25
  L 214.84 298.25
  A 0.56 0.56 0.0 0 0 214.28 298.80
  L 214.24 300.18
  A 0.56 0.56 0.0 0 0 214.80 300.75
  L 218.74 300.75
  A 0.56 0.56 0.0 0 1 219.30 301.31
  L 219.23 314.44
  A 0.56 0.56 0.0 0 0 219.79 315.00
  L 221.94 315.00
  A 0.56 0.56 0.0 0 0 222.50 314.44
  L 222.50 301.31"
/>
<path stroke="#8e8c8d" vector-effect="non-scaling-stroke" d="
  M 233.01 309.17
  C 233.43 315.70 242.17 316.94 245.18 312.45
  C 247.34 309.22 246.50 302.99 246.50 298.97
  A 0.72 0.72 0.0 0 0 245.78 298.25
  L 244.22 298.25
  A 0.72 0.72 0.0 0 0 243.50 298.97
  C 243.50 301.69 244.16 308.62 242.83 310.76
  C 241.49 312.93 238.47 313.14 236.84 311.18
  C 235.02 308.99 235.75 301.88 235.75 298.97
  A 0.72 0.72 0.0 0 0 235.03 298.25
  L 233.47 298.25
  Q 232.75 298.25 232.74 298.97
  Q 232.69 304.11 233.01 309.17"
/>
<path stroke="#8e8c8d" vector-effect="non-scaling-stroke" d="
  M 253.52 298.75
  L 253.46 314.49
  A 0.50 0.50 0.0 0 0 253.96 315.00
  L 259.69 315.02
  A 8.53 8.26 0.2 0 0 268.25 306.79
  L 268.25 306.57
  A 8.53 8.26 0.2 0 0 259.75 298.28
  L 254.02 298.26
  A 0.50 0.50 0.0 0 0 253.52 298.75"
/>
<path stroke="#8e8c8d" vector-effect="non-scaling-stroke" d="
  M 277.8053 298.7110
  A 0.41 0.41 0.0 0 0 277.3982 298.2982
  L 275.1183 298.2822
  A 0.41 0.41 0.0 0 0 274.7054 298.6894
  L 274.5947 314.5490
  A 0.41 0.41 0.0 0 0 275.0018 314.9618
  L 277.2817 314.9778
  A 0.41 0.41 0.0 0 0 277.6946 314.5706
  L 277.8053 298.7110"
/>
<path stroke="#8e8c8d" vector-effect="non-scaling-stroke" d="
  M 301.25 306.66
  A 8.50 8.50 0.0 0 0 292.75 298.16
  A 8.50 8.50 0.0 0 0 284.25 306.66
  A 8.50 8.50 0.0 0 0 292.75 315.16
  A 8.50 8.50 0.0 0 0 301.25 306.66"
/>
<path stroke="#8e8c8d" vector-effect="non-scaling-stroke" d="
  M 145.39 254.30
  A 0.32 0.32 0.0 0 0 145.68 254.75
  L 160.86 254.75
  A 0.32 0.32 0.0 0 0 161.15 254.30
  L 153.56 237.25
  A 0.32 0.32 0.0 0 0 152.98 237.25
  L 145.39 254.30"
/>
<path stroke="#8e8c8d" vector-effect="non-scaling-stroke" d="
  M 254.00 236.20
  L 254.00 252.76
  A 0.22 0.22 0.0 0 0 254.22 252.98
  L 264.36 252.98
  A 9.14 8.27 0.0 0 0 273.50 244.71
  L 273.50 244.25
  A 9.14 8.27 -0.0 0 0 264.36 235.98
  L 254.22 235.98
  A 0.22 0.22 0.0 0 0 254.00 236.20"
/>
<path stroke="#8e8c8d" vector-effect="non-scaling-stroke" d="
  M 338.11 254.34
  A 0.31 0.31 0.0 0 0 338.39 254.77
  L 353.63 254.75
  A 0.31 0.31 0.0 0 0 353.91 254.31
  L 346.26 237.24
  A 0.31 0.31 0.0 0 0 345.70 237.25
  L 338.11 254.34"
/>
<path stroke="#8e8c8d" vector-effect="non-scaling-stroke" d="
  M 256.48 301.37
  L 256.52 311.95
  A 0.58 0.58 0.0 0 0 257.10 312.53
  L 259.74 312.52
  A 5.28 5.22 -0.2 0 0 265.00 307.29
  L 265.00 305.99
  A 5.28 5.22 -0.2 0 0 259.70 300.78
  L 257.06 300.79
  A 0.58 0.58 0.0 0 0 256.48 301.37"
/>
<path stroke="#8e8c8d" vector-effect="non-scaling-stroke" d="
  M 292.7297 312.5400
  A 5.89 5.30 90.1 0 0 298.0400 306.6593
  A 5.89 5.30 90.1 0 0 292.7503 300.7600
  A 5.89 5.30 90.1 0 0 287.4400 306.6407
  A 5.89 5.30 90.1 0 0 292.7297 312.5400"
/>
</g>
<path fill="#ffffff" d="
  M 0.00 0.00
  L 500.00 0.00
  L 500.00 500.00
  L 0.00 500.00
  L 0.00 0.00
  Z
  M 79.26 274.76
  L 17.30 375.84
  A 0.28 0.27 15.7 0 0 17.54 376.26
  L 327.64 376.26
  Q 328.19 376.26 328.48 375.79
  L 395.77 266.05
  Q 396.02 265.65 395.75 265.27
  L 389.42 256.47
  A 0.79 0.78 -17.6 0 0 388.75 256.13
  L 378.00 256.30
  Q 377.24 256.31 377.24 257.07
  L 377.25 266.37
  Q 377.25 267.00 376.63 267.00
  L 374.21 267.00
  Q 373.68 267.00 373.68 266.47
  L 373.67 233.42
  Q 373.67 232.86 374.22 232.83
  C 383.88 232.32 402.51 230.85 400.22 246.75
  Q 399.38 252.53 393.17 255.02
  Q 392.59 255.25 392.96 255.76
  L 397.53 262.11
  Q 397.89 262.61 398.21 262.09
  L 411.49 240.48
  A 0.45 0.45 0.0 0 1 412.26 240.49
  L 421.07 254.96
  A 1.20 1.19 29.3 0 1 421.25 255.59
  L 421.25 266.50
  Q 421.25 267.00 421.75 267.00
  L 425.50 267.00
  Q 426.00 267.00 426.00 266.50
  L 426.00 255.51
  Q 426.00 255.08 426.22 254.72
  L 439.28 233.28
  Q 439.61 232.75 438.99 232.75
  L 435.28 232.75
  Q 434.77 232.75 434.50 233.19
  L 424.04 250.30
  A 0.34 0.33 -44.7 0 1 423.47 250.30
  L 414.93 236.24
  A 1.30 1.28 45.4 0 1 414.93 234.91
  L 483.13 123.63
  A 0.42 0.42 0.0 0 0 482.77 123.00
  L 172.98 123.00
  A 0.99 0.99 0.0 0 0 172.14 123.47
  Q 137.34 179.84 102.87 236.41
  Q 101.71 238.32 101.63 240.45
  C 101.30 249.00 98.71 265.66 113.77 263.88
  Q 121.46 262.98 122.27 253.76
  Q 122.69 248.98 122.43 233.36
  Q 122.42 232.75 123.04 232.75
  L 125.28 232.75
  Q 125.89 232.75 125.91 233.36
  Q 126.29 248.90 125.63 255.43
  C 124.62 265.30 114.91 269.45 106.43 266.36
  C 97.06 262.95 97.56 253.69 97.76 245.30
  Q 97.78 244.69 97.46 245.21
  Q 90.26 256.88 82.83 268.42
  C 80.49 272.05 75.24 269.67 73.10 267.19
  Q 72.78 266.81 73.25 266.67
  C 87.46 262.41 90.75 243.65 78.30 235.56
  C 63.13 225.71 43.10 240.44 51.57 257.77
  Q 55.69 266.20 66.48 267.32
  A 1.19 1.17 72.9 0 1 67.27 267.75
  Q 71.81 273.42 79.00 274.23
  Q 79.54 274.30 79.26 274.76
  Z
  M 377.26 236.19
  L 377.24 252.71
  A 0.25 0.25 0.0 0 0 377.49 252.96
  L 387.46 252.98
  A 9.26 8.10 0.1 0 0 396.73 244.90
  L 396.73 244.08
  A 9.26 8.10 0.1 0 0 387.48 235.96
  L 377.51 235.94
  A 0.25 0.25 0.0 0 0 377.26 236.19
  Z"
/>
<path fill="#1c191a" d="
  M 79.00 274.23
  Q 71.81 273.42 67.27 267.75
  A 1.19 1.17 72.9 0 0 66.48 267.32
  Q 55.69 266.20 51.57 257.77
  C 43.10 240.44 63.13 225.71 78.30 235.56
  C 90.75 243.65 87.46 262.41 73.25 266.67
  Q 72.78 266.81 73.10 267.19
  C 75.24 269.67 80.49 272.05 82.83 268.42
  Q 90.26 256.88 97.46 245.21
  Q 97.78 244.69 97.76 245.30
  C 97.56 253.69 97.06 262.95 106.43 266.36
  C 114.91 269.45 124.62 265.30 125.63 255.43
  Q 126.29 248.90 125.91 233.36
  Q 125.89 232.75 125.28 232.75
  L 123.04 232.75
  Q 122.42 232.75 122.43 233.36
  Q 122.69 248.98 122.27 253.76
  Q 121.46 262.98 113.77 263.88
  C 98.71 265.66 101.30 249.00 101.63 240.45
  Q 101.71 238.32 102.87 236.41
  Q 137.34 179.84 172.14 123.47
  A 0.99 0.99 0.0 0 1 172.98 123.00
  L 482.77 123.00
  A 0.42 0.42 0.0 0 1 483.13 123.63
  L 414.93 234.91
  A 1.30 1.28 45.4 0 0 414.93 236.24
  L 423.47 250.30
  A 0.34 0.33 -44.7 0 0 424.04 250.30
  L 434.50 233.19
  Q 434.77 232.75 435.28 232.75
  L 438.99 232.75
  Q 439.61 232.75 439.28 233.28
  L 426.22 254.72
  Q 426.00 255.08 426.00 255.51
  L 426.00 266.50
  Q 426.00 267.00 425.50 267.00
  L 421.75 267.00
  Q 421.25 267.00 421.25 266.50
  L 421.25 255.59
  A 1.20 1.19 29.3 0 0 421.07 254.96
  L 412.26 240.49
  A 0.45 0.45 0.0 0 0 411.49 240.48
  L 398.21 262.09
  Q 397.89 262.61 397.53 262.11
  L 392.96 255.76
  Q 392.59 255.25 393.17 255.02
  Q 399.38 252.53 400.22 246.75
  C 402.51 230.85 383.88 232.32 374.22 232.83
  Q 373.67 232.86 373.67 233.42
  L 373.68 266.47
  Q 373.68 267.00 374.21 267.00
  L 376.63 267.00
  Q 377.25 267.00 377.25 266.37
  L 377.24 257.07
  Q 377.24 256.31 378.00 256.30
  L 388.75 256.13
  A 0.79 0.78 -17.6 0 1 389.42 256.47
  L 395.75 265.27
  Q 396.02 265.65 395.77 266.05
  L 328.48 375.79
  Q 328.19 376.26 327.64 376.26
  L 17.54 376.26
  A 0.28 0.27 15.7 0 1 17.30 375.84
  L 79.26 274.76
  Q 79.54 274.30 79.00 274.23
  Z
  M 144.28 257.75
  L 162.25 257.75
  Q 162.79 257.75 163.02 258.24
  L 166.76 266.51
  Q 166.98 267.00 167.51 267.00
  L 169.97 267.00
  Q 170.71 267.00 170.40 266.33
  L 155.63 233.95
  A 2.56 2.55 45.0 0 0 150.98 233.95
  L 136.19 266.27
  Q 135.86 267.00 136.66 267.00
  L 138.96 267.00
  Q 139.58 267.00 139.84 266.43
  L 143.53 258.23
  Q 143.75 257.75 144.28 257.75
  Z
  M 187.10 235.75
  A 0.40 0.40 0.0 0 1 187.50 236.15
  L 187.50 266.60
  A 0.40 0.40 0.0 0 0 187.90 267.00
  L 190.60 267.00
  A 0.40 0.40 0.0 0 0 191.00 266.60
  L 191.00 236.15
  A 0.40 0.40 0.0 0 1 191.40 235.75
  L 202.60 235.75
  A 0.40 0.40 0.0 0 0 203.00 235.35
  L 203.00 233.15
  A 0.40 0.40 0.0 0 0 202.60 232.75
  L 175.90 232.75
  A 0.40 0.40 0.0 0 0 175.50 233.15
  L 175.50 235.35
  A 0.40 0.40 0.0 0 0 175.90 235.75
  L 187.10 235.75
  Z
  M 217.09 248.07
  A 0.34 0.34 0.0 0 1 216.75 247.73
  L 216.74 236.09
  A 0.34 0.34 0.0 0 1 217.08 235.75
  L 236.16 235.75
  A 0.34 0.34 0.0 0 0 236.50 235.41
  L 236.50 233.09
  A 0.34 0.34 0.0 0 0 236.16 232.75
  L 213.45 232.75
  A 0.34 0.34 0.0 0 0 213.11 233.09
  L 213.16 266.66
  A 0.34 0.34 0.0 0 0 213.50 267.00
  L 236.91 267.00
  A 0.34 0.34 0.0 0 0 237.25 266.66
  L 237.25 264.34
  A 0.34 0.34 0.0 0 0 236.91 264.00
  L 217.09 264.00
  A 0.34 0.34 0.0 0 1 216.75 263.66
  L 216.75 251.34
  A 0.34 0.34 0.0 0 1 217.09 251.00
  L 234.06 251.00
  A 0.34 0.34 0.0 0 0 234.40 250.67
  L 234.45 248.46
  A 0.34 0.34 0.0 0 0 234.11 248.11
  L 217.09 248.07
  Z
  M 266.23 256.44
  L 273.45 266.57
  Q 273.74 266.98 274.25 266.99
  L 276.90 267.01
  A 0.42 0.42 0.0 0 0 277.24 266.35
  L 269.67 255.86
  Q 269.31 255.37 269.87 255.12
  C 276.90 251.93 279.29 244.25 275.14 237.89
  C 270.97 231.49 258.59 232.29 250.68 233.04
  Q 250.42 233.06 250.42 233.32
  L 250.43 266.34
  Q 250.43 267.00 251.09 267.00
  L 253.37 267.00
  Q 254.00 267.00 254.00 266.38
  L 254.00 256.50
  Q 254.00 256.00 254.50 256.00
  L 265.40 256.01
  A 1.02 1.00 -17.2 0 1 266.23 256.44
  Z
  M 294.23 239.81
  L 315.45 266.61
  A 1.85 1.85 0.0 0 0 318.75 265.46
  L 318.75 233.50
  Q 318.75 232.75 318.00 232.75
  L 315.88 232.75
  Q 315.25 232.75 315.25 233.37
  L 315.25 260.02
  A 0.26 0.26 0.0 0 1 314.78 260.18
  L 293.27 233.05
  A 1.83 1.83 0.0 0 0 290.01 234.20
  L 290.22 266.23
  Q 290.22 267.00 290.99 267.00
  L 293.12 267.00
  Q 293.75 267.00 293.75 266.38
  L 293.75 239.98
  Q 293.75 239.21 294.23 239.81
  Z
  M 355.75 258.24
  L 359.50 266.52
  Q 359.71 266.98 360.21 266.98
  L 362.71 267.01
  Q 363.46 267.01 363.15 266.34
  L 348.37 233.95
  A 2.56 2.56 0.0 0 0 343.71 233.95
  L 328.93 266.33
  Q 328.60 267.05 329.39 267.02
  L 331.82 266.95
  Q 332.35 266.93 332.57 266.44
  L 336.29 258.23
  A 0.81 0.80 11.7 0 1 337.03 257.75
  L 354.99 257.75
  Q 355.53 257.75 355.75 258.24
  Z
  M 81.02 249.87
  A 13.22 13.22 0.0 0 0 67.80 236.65
  A 13.22 13.22 0.0 0 0 54.58 249.87
  A 13.22 13.22 0.0 0 0 67.80 263.09
  A 13.22 13.22 0.0 0 0 81.02 249.87
  Z
  M 203.00 301.08
  Q 205.50 300.13 207.62 301.77
  Q 208.10 302.14 208.37 301.60
  L 209.03 300.29
  Q 209.30 299.77 208.80 299.45
  C 205.77 297.54 200.98 297.58 199.50 301.37
  C 197.60 306.26 202.79 307.26 205.83 308.63
  A 1.89 1.89 0.0 0 1 205.77 312.10
  Q 203.03 313.21 200.72 311.45
  Q 200.36 311.18 199.93 311.32
  Q 198.78 311.68 198.74 312.78
  Q 198.72 313.35 199.20 313.66
  C 202.28 315.65 206.98 315.87 208.99 312.35
  C 211.83 307.38 206.43 305.51 203.05 304.35
  A 1.74 1.74 0.0 0 1 203.00 301.08
  Z
  M 222.50 301.31
  A 0.56 0.56 0.0 0 1 223.06 300.75
  L 226.94 300.75
  A 0.56 0.56 0.0 0 0 227.50 300.19
  L 227.50 298.81
  A 0.56 0.56 0.0 0 0 226.94 298.25
  L 214.84 298.25
  A 0.56 0.56 0.0 0 0 214.28 298.80
  L 214.24 300.18
  A 0.56 0.56 0.0 0 0 214.80 300.75
  L 218.74 300.75
  A 0.56 0.56 0.0 0 1 219.30 301.31
  L 219.23 314.44
  A 0.56 0.56 0.0 0 0 219.79 315.00
  L 221.94 315.00
  A 0.56 0.56 0.0 0 0 222.50 314.44
  L 222.50 301.31
  Z
  M 233.01 309.17
  C 233.43 315.70 242.17 316.94 245.18 312.45
  C 247.34 309.22 246.50 302.99 246.50 298.97
  A 0.72 0.72 0.0 0 0 245.78 298.25
  L 244.22 298.25
  A 0.72 0.72 0.0 0 0 243.50 298.97
  C 243.50 301.69 244.16 308.62 242.83 310.76
  C 241.49 312.93 238.47 313.14 236.84 311.18
  C 235.02 308.99 235.75 301.88 235.75 298.97
  A 0.72 0.72 0.0 0 0 235.03 298.25
  L 233.47 298.25
  Q 232.75 298.25 232.74 298.97
  Q 232.69 304.11 233.01 309.17
  Z
  M 253.52 298.75
  L 253.46 314.49
  A 0.50 0.50 0.0 0 0 253.96 315.00
  L 259.69 315.02
  A 8.53 8.26 0.2 0 0 268.25 306.79
  L 268.25 306.57
  A 8.53 8.26 0.2 0 0 259.75 298.28
  L 254.02 298.26
  A 0.50 0.50 0.0 0 0 253.52 298.75
  Z
  M 277.8053 298.7110
  A 0.41 0.41 0.0 0 0 277.3982 298.2982
  L 275.1183 298.2822
  A 0.41 0.41 0.0 0 0 274.7054 298.6894
  L 274.5947 314.5490
  A 0.41 0.41 0.0 0 0 275.0018 314.9618
  L 277.2817 314.9778
  A 0.41 0.41 0.0 0 0 277.6946 314.5706
  L 277.8053 298.7110
  Z
  M 301.25 306.66
  A 8.50 8.50 0.0 0 0 292.75 298.16
  A 8.50 8.50 0.0 0 0 284.25 306.66
  A 8.50 8.50 0.0 0 0 292.75 315.16
  A 8.50 8.50 0.0 0 0 301.25 306.66
  Z"
/>
<path fill="#ffffff" d="
  M 143.53 258.23
  L 139.84 266.43
  Q 139.58 267.00 138.96 267.00
  L 136.66 267.00
  Q 135.86 267.00 136.19 266.27
  L 150.98 233.95
  A 2.56 2.55 45.0 0 1 155.63 233.95
  L 170.40 266.33
  Q 170.71 267.00 169.97 267.00
  L 167.51 267.00
  Q 166.98 267.00 166.76 266.51
  L 163.02 258.24
  Q 162.79 257.75 162.25 257.75
  L 144.28 257.75
  Q 143.75 257.75 143.53 258.23
  Z
  M 145.39 254.30
  A 0.32 0.32 0.0 0 0 145.68 254.75
  L 160.86 254.75
  A 0.32 0.32 0.0 0 0 161.15 254.30
  L 153.56 237.25
  A 0.32 0.32 0.0 0 0 152.98 237.25
  L 145.39 254.30
  Z"
/>
<path fill="#ffffff" d="
  M 187.10 235.75
  L 175.90 235.75
  A 0.40 0.40 0.0 0 1 175.50 235.35
  L 175.50 233.15
  A 0.40 0.40 0.0 0 1 175.90 232.75
  L 202.60 232.75
  A 0.40 0.40 0.0 0 1 203.00 233.15
  L 203.00 235.35
  A 0.40 0.40 0.0 0 1 202.60 235.75
  L 191.40 235.75
  A 0.40 0.40 0.0 0 0 191.00 236.15
  L 191.00 266.60
  A 0.40 0.40 0.0 0 1 190.60 267.00
  L 187.90 267.00
  A 0.40 0.40 0.0 0 1 187.50 266.60
  L 187.50 236.15
  A 0.40 0.40 0.0 0 0 187.10 235.75
  Z"
/>
<path fill="#ffffff" d="
  M 217.09 248.07
  L 234.11 248.11
  A 0.34 0.34 0.0 0 1 234.45 248.46
  L 234.40 250.67
  A 0.34 0.34 0.0 0 1 234.06 251.00
  L 217.09 251.00
  A 0.34 0.34 0.0 0 0 216.75 251.34
  L 216.75 263.66
  A 0.34 0.34 0.0 0 0 217.09 264.00
  L 236.91 264.00
  A 0.34 0.34 0.0 0 1 237.25 264.34
  L 237.25 266.66
  A 0.34 0.34 0.0 0 1 236.91 267.00
  L 213.50 267.00
  A 0.34 0.34 0.0 0 1 213.16 266.66
  L 213.11 233.09
  A 0.34 0.34 0.0 0 1 213.45 232.75
  L 236.16 232.75
  A 0.34 0.34 0.0 0 1 236.50 233.09
  L 236.50 235.41
  A 0.34 0.34 0.0 0 1 236.16 235.75
  L 217.08 235.75
  A 0.34 0.34 0.0 0 0 216.74 236.09
  L 216.75 247.73
  A 0.34 0.34 0.0 0 0 217.09 248.07
  Z"
/>
<path fill="#ffffff" d="
  M 265.40 256.01
  L 254.50 256.00
  Q 254.00 256.00 254.00 256.50
  L 254.00 266.38
  Q 254.00 267.00 253.37 267.00
  L 251.09 267.00
  Q 250.43 267.00 250.43 266.34
  L 250.42 233.32
  Q 250.42 233.06 250.68 233.04
  C 258.59 232.29 270.97 231.49 275.14 237.89
  C 279.29 244.25 276.90 251.93 269.87 255.12
  Q 269.31 255.37 269.67 255.86
  L 277.24 266.35
  A 0.42 0.42 0.0 0 1 276.90 267.01
  L 274.25 266.99
  Q 273.74 266.98 273.45 266.57
  L 266.23 256.44
  A 1.02 1.00 -17.2 0 0 265.40 256.01
  Z
  M 254.00 236.20
  L 254.00 252.76
  A 0.22 0.22 0.0 0 0 254.22 252.98
  L 264.36 252.98
  A 9.14 8.27 0.0 0 0 273.50 244.71
  L 273.50 244.25
  A 9.14 8.27 -0.0 0 0 264.36 235.98
  L 254.22 235.98
  A 0.22 0.22 0.0 0 0 254.00 236.20
  Z"
/>
<path fill="#ffffff" d="
  M 293.75 239.98
  L 293.75 266.38
  Q 293.75 267.00 293.12 267.00
  L 290.99 267.00
  Q 290.22 267.00 290.22 266.23
  L 290.01 234.20
  A 1.83 1.83 0.0 0 1 293.27 233.05
  L 314.78 260.18
  A 0.26 0.26 0.0 0 0 315.25 260.02
  L 315.25 233.37
  Q 315.25 232.75 315.88 232.75
  L 318.00 232.75
  Q 318.75 232.75 318.75 233.50
  L 318.75 265.46
  A 1.85 1.85 0.0 0 1 315.45 266.61
  L 294.23 239.81
  Q 293.75 239.21 293.75 239.98
  Z"
/>
<path fill="#ffffff" d="
  M 354.99 257.75
  L 337.03 257.75
  A 0.81 0.80 11.7 0 0 336.29 258.23
  L 332.57 266.44
  Q 332.35 266.93 331.82 266.95
  L 329.39 267.02
  Q 328.60 267.05 328.93 266.33
  L 343.71 233.95
  A 2.56 2.56 0.0 0 1 348.37 233.95
  L 363.15 266.34
  Q 363.46 267.01 362.71 267.01
  L 360.21 266.98
  Q 359.71 266.98 359.50 266.52
  L 355.75 258.24
  Q 355.53 257.75 354.99 257.75
  Z
  M 338.11 254.34
  A 0.31 0.31 0.0 0 0 338.39 254.77
  L 353.63 254.75
  A 0.31 0.31 0.0 0 0 353.91 254.31
  L 346.26 237.24
  A 0.31 0.31 0.0 0 0 345.70 237.25
  L 338.11 254.34
  Z"
/>
<path fill="#1c191a" d="
  M 377.26 236.19
  A 0.25 0.25 0.0 0 1 377.51 235.94
  L 387.48 235.96
  A 9.26 8.10 0.1 0 1 396.73 244.08
  L 396.73 244.90
  A 9.26 8.10 0.1 0 1 387.46 252.98
  L 377.49 252.96
  A 0.25 0.25 0.0 0 1 377.24 252.71
  L 377.26 236.19
  Z"
/>
<path fill="#1c191a" d="
  M 254.00 236.20
  A 0.22 0.22 0.0 0 1 254.22 235.98
  L 264.36 235.98
  A 9.14 8.27 -0.0 0 1 273.50 244.25
  L 273.50 244.71
  A 9.14 8.27 -0.0 0 1 264.36 252.98
  L 254.22 252.98
  A 0.22 0.22 0.0 0 1 254.00 252.76
  L 254.00 236.20
  Z"
/>
<circle fill="#ffffff" cx="67.80" cy="249.87" r="13.22"/>
<path fill="#1c191a" d="
  M 338.11 254.34
  L 345.70 237.25
  A 0.31 0.31 0.0 0 1 346.26 237.24
  L 353.91 254.31
  A 0.31 0.31 0.0 0 1 353.63 254.75
  L 338.39 254.77
  A 0.31 0.31 0.0 0 1 338.11 254.34
  Z"
/>
<path fill="#1c191a" d="
  M 145.39 254.30
  L 152.98 237.25
  A 0.32 0.32 0.0 0 1 153.56 237.25
  L 161.15 254.30
  A 0.32 0.32 0.0 0 1 160.86 254.75
  L 145.68 254.75
  A 0.32 0.32 0.0 0 1 145.39 254.30
  Z"
/>
<path fill="#ffffff" d="
  M 203.00 301.08
  A 1.74 1.74 0.0 0 0 203.05 304.35
  C 206.43 305.51 211.83 307.38 208.99 312.35
  C 206.98 315.87 202.28 315.65 199.20 313.66
  Q 198.72 313.35 198.74 312.78
  Q 198.78 311.68 199.93 311.32
  Q 200.36 311.18 200.72 311.45
  Q 203.03 313.21 205.77 312.10
  A 1.89 1.89 0.0 0 0 205.83 308.63
  C 202.79 307.26 197.60 306.26 199.50 301.37
  C 200.98 297.58 205.77 297.54 208.80 299.45
  Q 209.30 299.77 209.03 300.29
  L 208.37 301.60
  Q 208.10 302.14 207.62 301.77
  Q 205.50 300.13 203.00 301.08
  Z"
/>
<path fill="#ffffff" d="
  M 222.50 301.31
  L 222.50 314.44
  A 0.56 0.56 0.0 0 1 221.94 315.00
  L 219.79 315.00
  A 0.56 0.56 0.0 0 1 219.23 314.44
  L 219.30 301.31
  A 0.56 0.56 0.0 0 0 218.74 300.75
  L 214.80 300.75
  A 0.56 0.56 0.0 0 1 214.24 300.18
  L 214.28 298.80
  A 0.56 0.56 0.0 0 1 214.84 298.25
  L 226.94 298.25
  A 0.56 0.56 0.0 0 1 227.50 298.81
  L 227.50 300.19
  A 0.56 0.56 0.0 0 1 226.94 300.75
  L 223.06 300.75
  A 0.56 0.56 0.0 0 0 222.50 301.31
  Z"
/>
<path fill="#ffffff" d="
  M 245.18 312.45
  C 242.17 316.94 233.43 315.70 233.01 309.17
  Q 232.69 304.11 232.74 298.97
  Q 232.75 298.25 233.47 298.25
  L 235.03 298.25
  A 0.72 0.72 0.0 0 1 235.75 298.97
  C 235.75 301.88 235.02 308.99 236.84 311.18
  C 238.47 313.14 241.49 312.93 242.83 310.76
  C 244.16 308.62 243.50 301.69 243.50 298.97
  A 0.72 0.72 0.0 0 1 244.22 298.25
  L 245.78 298.25
  A 0.72 0.72 0.0 0 1 246.50 298.97
  C 246.50 302.99 247.34 309.22 245.18 312.45
  Z"
/>
<path fill="#ffffff" d="
  M 253.52 298.75
  A 0.50 0.50 0.0 0 1 254.02 298.26
  L 259.75 298.28
  A 8.53 8.26 0.2 0 1 268.25 306.57
  L 268.25 306.79
  A 8.53 8.26 0.2 0 1 259.69 315.02
  L 253.96 315.00
  A 0.50 0.50 0.0 0 1 253.46 314.49
  L 253.52 298.75
  Z
  M 256.48 301.37
  L 256.52 311.95
  A 0.58 0.58 0.0 0 0 257.10 312.53
  L 259.74 312.52
  A 5.28 5.22 -0.2 0 0 265.00 307.29
  L 265.00 305.99
  A 5.28 5.22 -0.2 0 0 259.70 300.78
  L 257.06 300.79
  A 0.58 0.58 0.0 0 0 256.48 301.37
  Z"
/>
<rect fill="#ffffff" x="-1.55" y="-8.34" transform="translate(276.20,306.63) rotate(0.4)" width="3.10" height="16.68" rx="0.41"/>
<path fill="#ffffff" d="
  M 301.25 306.66
  A 8.50 8.50 0.0 0 1 292.75 315.16
  A 8.50 8.50 0.0 0 1 284.25 306.66
  A 8.50 8.50 0.0 0 1 292.75 298.16
  A 8.50 8.50 0.0 0 1 301.25 306.66
  Z
  M 292.7297 312.5400
  A 5.89 5.30 90.1 0 0 298.0400 306.6593
  A 5.89 5.30 90.1 0 0 292.7503 300.7600
  A 5.89 5.30 90.1 0 0 287.4400 306.6407
  A 5.89 5.30 90.1 0 0 292.7297 312.5400
  Z"
/>
<path fill="#1c191a" d="
  M 256.48 301.37
  A 0.58 0.58 0.0 0 1 257.06 300.79
  L 259.70 300.78
  A 5.28 5.22 -0.2 0 1 265.00 305.99
  L 265.00 307.29
  A 5.28 5.22 -0.2 0 1 259.74 312.52
  L 257.10 312.53
  A 0.58 0.58 0.0 0 1 256.52 311.95
  L 256.48 301.37
  Z"
/>
<ellipse fill="#1c191a" cx="0.00" cy="0.00" transform="translate(292.74,306.65) rotate(90.1)" rx="5.89" ry="5.30"/>
</svg>
